<svg width="36" height="33" viewBox="0 0 36 33" fill="none" xmlns="http://www.w3.org/2000/svg">
<path d="M13.4286 12.5714L18 0L22.5714 12.5714H36L25.2366 19.9008L30 33L18 24.8286L6 33L10.7634 19.9008L0 12.5714H13.4286Z" fill="white"/>
<path d="M30.75 18.0714C30.75 25.0267 25.0492 30.6786 18 30.6786C10.9508 30.6786 5.25 25.0267 5.25 18.0714C5.25 11.1162 10.9508 5.46429 18 5.46429C25.0492 5.46429 30.75 11.1162 30.75 18.0714Z" stroke="white" stroke-width="1.5"/>
<path d="M9.50977 13.5781L9.875 14.6094L10.2383 13.5781H10.623V15H10.3291V14.6113L10.3584 13.9404L9.97461 15H9.77344L9.39062 13.9414L9.41992 14.6113V15H9.12695V13.5781H9.50977ZM11.7344 14.3838H11.1719V14.7646H11.832V15H10.8789V13.5781H11.8301V13.8154H11.1719V14.1543H11.7344V14.3838ZM13.1602 15H12.8672L12.2969 14.0645V15H12.0039V13.5781H12.2969L12.8682 14.5156V13.5781H13.1602V15ZM14.457 13.8154H14.0215V15H13.7285V13.8154H13.2988V13.5781H14.457V13.8154ZM15.7656 14.3213C15.7656 14.4613 15.7409 14.584 15.6914 14.6895C15.6419 14.7949 15.571 14.8763 15.4785 14.9336C15.3867 14.9909 15.2812 15.0195 15.1621 15.0195C15.0443 15.0195 14.9391 14.9912 14.8467 14.9346C14.7542 14.8779 14.6826 14.7972 14.6318 14.6924C14.5811 14.5869 14.5553 14.4658 14.5547 14.3291V14.2588C14.5547 14.1188 14.5798 13.9958 14.6299 13.8896C14.6807 13.7829 14.752 13.7012 14.8438 13.6445C14.9362 13.5872 15.0417 13.5586 15.1602 13.5586C15.2786 13.5586 15.3838 13.5872 15.4756 13.6445C15.568 13.7012 15.6393 13.7829 15.6895 13.8896C15.7402 13.9958 15.7656 14.1185 15.7656 14.2578V14.3213ZM15.4688 14.2568C15.4688 14.1077 15.4421 13.9945 15.3887 13.917C15.3353 13.8395 15.2591 13.8008 15.1602 13.8008C15.0618 13.8008 14.986 13.8392 14.9326 13.916C14.8792 13.9922 14.8522 14.1042 14.8516 14.252V14.3213C14.8516 14.4665 14.8783 14.5791 14.9316 14.6592C14.985 14.7393 15.0618 14.7793 15.1621 14.7793C15.2604 14.7793 15.3359 14.7409 15.3887 14.6641C15.4414 14.5866 15.4681 14.474 15.4688 14.3262V14.2568ZM16.5049 14.4795H16.2715V15H15.9785V13.5781H16.5068C16.6748 13.5781 16.8044 13.6156 16.8955 13.6904C16.9867 13.7653 17.0322 13.8711 17.0322 14.0078C17.0322 14.1048 17.0111 14.1859 16.9688 14.251C16.9271 14.3154 16.8636 14.3669 16.7783 14.4053L17.0859 14.9863V15H16.7715L16.5049 14.4795ZM16.2715 14.2422H16.5078C16.5814 14.2422 16.6383 14.2236 16.6787 14.1865C16.7191 14.1488 16.7393 14.097 16.7393 14.0312C16.7393 13.9642 16.7201 13.9115 16.6816 13.873C16.6439 13.8346 16.5856 13.8154 16.5068 13.8154H16.2715V14.2422Z" fill="#E0E0FB"/>
</svg>
